#!OML:ASF C:\Vicon Data\Big\jianyuan-13\jianyuan\Session 1\Capture.male.ASF
:FULLY-SPECIFIED
:DEGREES
153
root -9.151865 17.532806 -13.496803 9.748611 -7.701587 3.126679
lowerback -13.170147 1.811883 -5.937178 
upperback 1.616002 3.531068 -1.625755 
thorax 8.902259 1.450736 2.323192 
lowerneck -4.044357 -3.189096 2.284666 
upperneck 25.240864 -4.423814 -1.212155 
head 8.403797 -1.977331 -1.157444 
rclavicle 0.000000 0.000000 
rhumerus -30.201713 -7.125017 -89.044110 
rradius 36.746699 
rwrist 26.428895 
rhand -16.868626 -16.321746 
rfingers 0.000000 
rthumb 9.362090 -46.093835 
lclavicle 0.000000 0.000000 
lhumerus -70.518283 45.079169 29.366797 
lradius 21.354603 
lwrist -76.275706 
lhand -22.063085 2.145051 
lfingers 0.000000 
lthumb 4.347844 32.080422 
rfemur -16.662236 -9.110392 18.135782 
rtibia 60.244547 
rfoot 0.573375 2.810802 
rtoes -38.278419 
lfemur -22.897511 -3.360939 -27.258804 
ltibia 17.136480 
lfoot -2.633725 -2.564865 
ltoes -19.549138 
154
root -9.150443 17.528109 -13.455828 9.687538 -7.709790 3.224963
lowerback -13.119686 1.782584 -6.016054 
upperback 1.649678 3.502560 -1.623790 
thorax 8.908000 1.432278 2.362174 
lowerneck -4.057233 -3.155513 2.266048 
upperneck 25.204699 -4.365799 -1.251075 
head 8.394064 -1.955940 -1.162341 
rclavicle 0.000000 0.000000 
rhumerus -30.227852 -7.313239 -88.890494 
rradius 36.533869 
rwrist 26.577539 
rhand -16.953669 -16.292099 
rfingers 0.000000 
rthumb 9.280046 -46.067817 
lclavicle 0.000000 0.000000 
lhumerus -70.023962 45.210845 30.091838 
lradius 21.385503 
lwrist -75.924145 
lhand -22.078827 2.277246 
lfingers 0.000000 
lthumb 4.332663 32.212922 
rfemur -17.216971 -9.061391 17.906171 
rtibia 61.119784 
rfoot 0.158784 2.483989 
rtoes -37.963154 
lfemur -22.779938 -3.336315 -27.409438 
ltibia 17.315136 
lfoot -2.843116 -2.708586 
ltoes -19.459724 
155
root -9.148145 17.523139 -13.413664 9.626311 -7.713868 3.324925
lowerback -13.057403 1.776521 -6.079936 
upperback 1.684718 3.504429 -1.652392 
thorax 8.908863 1.430239 2.365449 
lowerneck -4.089213 -3.137665 2.330388 
upperneck 25.173594 -4.340779 -1.290069 
head 8.387100 -1.942358 -1.184373 
rclavicle 0.000000 0.000000 
rhumerus -30.252665 -7.532713 -88.767291 
rradius 36.345901 
rwrist 26.594402 
rhand -17.049144 -16.406470 
rfingers 0.000000 
rthumb 9.187943 -46.186323 
lclavicle 0.000000 0.000000 
lhumerus -69.472597 45.373146 30.788669 
lradius 21.401972 
lwrist -75.579985 
lhand -22.105957 2.379340 
lfingers 0.000000 
lthumb 4.306465 32.315507 
rfemur -17.781751 -9.003620 17.671535 
rtibia 61.987036 
rfoot -0.233700 2.165477 
rtoes -37.278071 
lfemur -22.658982 -3.306742 -27.567282 
ltibia 17.498972 
lfoot -3.054409 -2.860488 
ltoes -19.399692 
156
root -9.146801 17.519742 -13.369274 9.600690 -7.776560 3.441629
lowerback -13.042495 1.810174 -6.154234 
upperback 1.719821 3.567665 -1.714325 
thorax 8.933848 1.457208 2.352966 
lowerneck -4.118626 -3.151418 2.421262 
upperneck 25.107091 -4.371125 -1.291994 
head 8.367054 -1.949386 -1.202231 
rclavicle 0.000000 0.000000 
rhumerus -30.261797 -7.906324 -88.612790 
rradius 36.125463 
rwrist 26.761324 
rhand -17.072494 -16.538841 
rfingers 0.000000 
rthumb 9.165422 -46.319715 
lclavicle 0.000000 0.000000 
lhumerus -69.148440 45.757080 31.022893 
lradius 21.366366 
lwrist -75.681798 
lhand -22.191986 2.364084 
lfingers 0.000000 
lthumb 4.223368 32.301918 
rfemur -18.436080 -8.864324 17.423356 
rtibia 62.847243 
rfoot -0.630339 1.754538 
rtoes -36.689114 
lfemur -22.574939 -3.181887 -27.758821 
ltibia 17.688853 
lfoot -3.238283 -3.055559 
ltoes -19.302839 
157
root -9.147905 17.515225 -13.322218 9.544349 -7.818939 3.529566
lowerback -13.007740 1.799961 -6.229722 
upperback 1.763367 3.566768 -1.723307 
thorax 8.958227 1.451587 2.384626 
lowerneck -4.068600 -3.135147 2.395685 
upperneck 24.982514 -4.340657 -1.299533 
head 8.316220 -1.940004 -1.194766 
rclavicle 0.000000 0.000000 
rhumerus -30.319274 -8.093054 -88.444588 
rradius 35.940339 
rwrist 26.959407 
rhand -17.089394 -16.619956 
rfingers 0.000000 
rthumb 9.149089 -46.401541 
lclavicle 0.000000 0.000000 
lhumerus -69.007978 46.226825 31.129318 
lradius 21.315994 
lwrist -75.882625 
lhand -22.256631 2.344448 
lfingers 0.000000 
lthumb 4.160975 32.283513 
rfemur -19.078188 -8.670871 17.221681 
rtibia 63.685736 
rfoot -0.985115 1.210514 
rtoes -35.796691 
lfemur -22.427067 -3.109392 -27.900998 
ltibia 17.853858 
lfoot -3.445337 -3.203754 
ltoes -19.261080 
158
root -9.144006 17.511803 -13.272525 9.428525 -7.680370 3.584330
lowerback -12.898452 1.736121 -6.211778 
upperback 1.832153 3.471072 -1.691626 
thorax 8.977313 1.403816 2.386413 
lowerneck -4.017070 -3.107522 2.269634 
upperneck 24.862762 -4.285088 -1.292369 
head 8.269926 -1.926264 -1.163576 
rclavicle 0.000000 0.000000 
rhumerus -30.343903 -8.285548 -88.222061 
rradius 35.722113 
rwrist 26.929495 
rhand -17.099426 -16.608424 
rfingers 0.000000 
rthumb 9.139394 -46.390410 
lclavicle 0.000000 0.000000 
lhumerus -68.693925 46.616382 31.589856 
lradius 21.315422 
lwrist -76.014299 
lhand -22.345532 2.468448 
lfingers 0.000000 
lthumb 4.075111 32.409196 
rfemur -19.674326 -8.666430 17.058464 
rtibia 64.508704 
rfoot -1.322176 0.692912 
rtoes -35.435860 
lfemur -22.180826 -3.267772 -27.981811 
ltibia 17.980663 
lfoot -3.665181 -3.282422 
ltoes -19.298714 
159
root -9.136487 17.509192 -13.222318 9.320537 -7.552511 3.704528
lowerback -12.770613 1.680461 -6.220259 
upperback 1.885910 3.391050 -1.693625 
thorax 8.968789 1.364497 2.368934 
lowerneck -3.981667 -3.085898 2.142212 
upperneck 24.780109 -4.246570 -1.251079 
head 8.239978 -1.916792 -1.123171 
rclavicle 0.000000 0.000000 
rhumerus -30.373610 -8.663532 -87.961598 
rradius 35.489394 
rwrist 26.910828 
rhand -17.063780 -16.606496 
rfingers 0.000000 
rthumb 9.173763 -46.386950 
lclavicle 0.000000 0.000000 
lhumerus -68.273461 46.988083 32.135222 
lradius 21.293930 
lwrist -76.065397 
lhand -22.388245 2.484607 
lfingers 0.000000 
lthumb 4.033858 32.426191 
rfemur -20.293985 -8.612529 16.770360 
rtibia 65.307964 
rfoot -1.667072 0.132109 
rtoes -34.569625 
lfemur -21.932170 -3.403467 -28.155637 
ltibia 18.082843 
lfoot -3.870997 -3.393834 
ltoes -19.332794 
160
root -9.131472 17.506336 -13.174290 9.267988 -7.531038 3.837114
lowerback -12.699698 1.691524 -6.262329 
upperback 1.935799 3.415031 -1.753620 
thorax 8.982395 1.374403 2.330610 
lowerneck -4.019596 -3.100578 2.227225 
upperneck 24.727244 -4.269207 -1.289405 
head 8.225483 -1.923978 -1.151900 
rclavicle 0.000000 0.000000 
rhumerus -30.399060 -9.218732 -87.757426 
rradius 35.244826 
rwrist 27.120813 
rhand -17.180122 -16.676473 
rfingers 0.000000 
rthumb 9.061547 -46.461820 
lclavicle 0.000000 0.000000 
lhumerus -67.568391 47.305220 32.825009 
lradius 21.227270 
lwrist -76.259121 
lhand -22.404365 2.538163 
lfingers 0.000000 
lthumb 4.018315 32.480002 
rfemur -21.025108 -8.453426 16.486545 
rtibia 66.063839 
rfoot -1.984775 -0.413138 
rtoes -34.369372 
lfemur -21.733002 -3.439249 -28.353596 
ltibia 18.142463 
lfoot -4.058190 -3.464891 
ltoes -18.866655 
161
root -9.129064 17.504431 -13.124223 9.189245 -7.509828 3.908628
lowerback -12.612907 1.678357 -6.255414 
upperback 1.993980 3.395116 -1.781305 
thorax 8.999855 1.364496 2.290617 
lowerneck -4.039676 -3.073546 2.288299 
upperneck 24.658617 -4.232850 -1.317825 
head 8.204314 -1.904932 -1.168071 
rclavicle 0.000000 0.000000 
rhumerus -30.423231 -9.596796 -87.595371 
rradius 34.958323 
rwrist 27.341819 
rhand -17.299318 -16.737387 
rfingers 0.000000 
rthumb 8.946519 -46.527702 
lclavicle 0.000000 0.000000 
lhumerus -67.183386 47.804666 33.144162 
lradius 21.151849 
lwrist -76.581551 
lhand -22.463874 2.565213 
lfingers 0.000000 
lthumb 3.960823 32.508120 
rfemur -21.682484 -8.187269 16.284632 
rtibia 66.749098 
rfoot -2.346823 -1.052153 
rtoes -33.890034 
lfemur -21.485653 -3.502079 -28.471083 
ltibia 18.189646 
lfoot -4.215779 -3.506913 
ltoes -18.892874 
